<svg xmlns="http://www.w3.org/2000/svg" viewBox="0 0 400 400" width="400" height="400">
  <rect width="400" height="400" fill="#f8f8f8"/>
  <!-- gear teeth -->
  <g transform="translate(200,195)">
    <polygon points="0,-145 18,-130 18,-110 0,-125 -18,-110 -18,-130" fill="#bbb" stroke="#999" stroke-width="1.5"/>
    <polygon points="0,145 18,130 18,110 0,125 -18,110 -18,130" fill="#bbb" stroke="#999" stroke-width="1.5"/>
    <polygon points="-145,0 -130,-18 -110,-18 -125,0 -110,18 -130,18" fill="#bbb" stroke="#999" stroke-width="1.5"/>
    <polygon points="145,0 130,-18 110,-18 125,0 110,18 130,18" fill="#bbb" stroke="#999" stroke-width="1.5"/>
    <polygon points="-103,-103 -90,-118 -74,-102 -89,-89 -74,-74 -90,-90" fill="#bbb" stroke="#999" stroke-width="1.5"/>
    <polygon points="103,103 90,118 74,102 89,89 74,74 90,90" fill="#bbb" stroke="#999" stroke-width="1.5"/>
    <polygon points="103,-103 90,-118 74,-102 89,-89 74,-74 90,-90" fill="#bbb" stroke="#999" stroke-width="1.5"/>
    <polygon points="-103,103 -90,118 -74,102 -89,89 -74,74 -90,90" fill="#bbb" stroke="#999" stroke-width="1.5"/>
    <circle r="128" fill="#d0d0d0" stroke="#aaa" stroke-width="2"/>
    <circle r="75" fill="#e8e8e8" stroke="#bbb" stroke-width="2"/>
    <circle r="32" fill="#bbb" stroke="#999" stroke-width="2"/>
    <circle r="14" fill="#777"/>
  </g>
  <text x="200" y="375" text-anchor="middle" font-family="Arial,sans-serif" font-size="18" font-weight="bold" fill="#555">TRANSMISION</text>
</svg>
